<svg xmlns="http://www.w3.org/2000/svg" width="23.867" height="25.648" viewBox="0 0 23.867 25.648">
  <g id="_24-hours" data-name="24-hours" transform="translate(-17.779)">
    <path id="Path_3969" data-name="Path 3969" d="M36.933,6.575l4.393.32.32-4.393-1.505-.11-.126,1.728a12.823,12.823,0,1,0,1.24,15.838L40,19.117A11.317,11.317,0,1,1,38.964,5.209l-1.921-.14Z" transform="translate(0 0)" fill="#ffa900"/>
    <g id="Group_1486" data-name="Group 1486" transform="translate(22.321 9.253)">
      <path id="Path_3970" data-name="Path 3970" d="M108.443,192.869c0-1.575.3-2.307,1.524-2.86.724-.323,1.43-.63,1.43-1.345a.654.654,0,0,0-.732-.7,2.053,2.053,0,0,0-1.362.673l-.843-.9a3.274,3.274,0,0,1,2.392-.979c1.345,0,2.094.724,2.094,1.89a1.95,1.95,0,0,1-1.345,1.847c-.689.349-1.175.664-1.175,1.149h2.528v1.226Z" transform="translate(-108.443 -186.655)" fill="#666"/>
      <path id="Path_3971" data-name="Path 3971" d="M213.12,193.99v-1.268h-2.383V191.5l2.809-3.558h.936V191.5h.749v1.217h-.749v1.268Zm-1.03-2.486h1.183v-1.515Z" transform="translate(-205.613 -187.784)" fill="#666"/>
      <path id="Path_3972" data-name="Path 3972" d="M320.236,190.931h-1.362V188.42c0-.579-.255-.843-.647-.843a1.167,1.167,0,0,0-.945.792v2.562H315.92v-6.214h1.362v2.494a1.775,1.775,0,0,1,1.549-.834c1.2,0,1.4.919,1.4,1.694v2.86Z" transform="translate(-305.527 -184.717)" fill="#666"/>
    </g>
    <g id="Group_1487" data-name="Group 1487" transform="translate(30.603)">
      <path id="Path_3973" data-name="Path 3973" d="M284.43,382.46l-1.253-.842a11.312,11.312,0,0,1-9.4,5.022v1.509A12.819,12.819,0,0,0,284.43,382.46Z" transform="translate(-273.779 -362.501)" fill="#f80"/>
      <path id="Path_3974" data-name="Path 3974" d="M280.109,6.575l4.393.32.32-4.393-1.505-.11-.126,1.728A12.8,12.8,0,0,0,273.779,0V1.509a11.3,11.3,0,0,1,8.361,3.7l-1.921-.14Z" transform="translate(-273.779 0)" fill="#f80"/>
    </g>
  </g>
</svg>
