<svg xmlns="http://www.w3.org/2000/svg" width="41" height="27" viewBox="0 0 41 27">
  <g id="Group_1737" data-name="Group 1737" transform="translate(-269 -286)">
    <path id="Path_3862" data-name="Path 3862" d="M40.293,115.276H.707A.709.709,0,0,1,0,114.565V88.987a.709.709,0,0,1,.707-.711H40.293a.709.709,0,0,1,.707.711v25.579A.709.709,0,0,1,40.293,115.276Z" transform="translate(269 197.724)" fill="#73af00"/>
    <g id="Group_1440" data-name="Group 1440" transform="translate(278 292)">
      <path id="Path_3863" data-name="Path 3863" d="M102.49,168.877c.067.432.329.568.556.55a.558.558,0,0,0,.5-.524v-1.483a.135.135,0,1,1,.27,0v1.49a.539.539,0,0,0,.74.5l.135-.054c.012,1.245-.063,2.34-.065,2.36a.27.27,0,0,0,.25.288h.02a.27.27,0,0,0,.269-.251c.006-.088.089-1.286.064-2.613l.082-.033a.271.271,0,0,1,.221.009.771.771,0,0,0,.889-.144l.049-.049a.805.805,0,0,0,.2-.828l-.23-.689a.27.27,0,0,0,.2-.5l-.539-.27a.27.27,0,0,0-.377.327l.434,1.3a.268.268,0,0,1-.065.276l-.049.049a.232.232,0,0,1-.267.043.806.806,0,0,0-.561-.056,9.3,9.3,0,0,0-.33-2.324.27.27,0,0,0-.512.171,9.273,9.273,0,0,1,.309,2.354l-.323.129v-1.49a.674.674,0,1,0-1.349,0v1.306l-.275-1.359a.27.27,0,1,0-.529.107Z" transform="translate(-102.125 -165.514)" fill="#f5f5f5"/>
      <path id="Path_3864" data-name="Path 3864" d="M109.43,163.4a.27.27,0,0,0,.27-.27v-.27a.27.27,0,1,0-.539,0v.27A.27.27,0,0,0,109.43,163.4Z" transform="translate(-108.545 -162.308)" fill="#f5f5f5"/>
      <path id="Path_3865" data-name="Path 3865" d="M144.227,163.133h.27a.27.27,0,0,0,0-.539h-.27a.27.27,0,0,0,0,.539Z" transform="translate(-140.645 -162.308)" fill="#f5f5f5"/>
      <path id="Path_3866" data-name="Path 3866" d="M107.159,214.829l-1.349.809a.27.27,0,1,0,.278.462l1.349-.809a.27.27,0,1,0-.278-.463Z" transform="translate(-105.334 -210.458)" fill="#f5f5f5"/>
      <path id="Path_3867" data-name="Path 3867" d="M120.353,170.365l.006,0a.615.615,0,0,0,.124.253.53.53,0,0,0,.46.179.744.744,0,0,0,.561-.3.487.487,0,0,0,.057.034.511.511,0,0,0,.475-.015,1.024,1.024,0,0,0,.483-.949.276.276,0,0,0-.281-.255.271.271,0,0,0-.258.28s.006.323-.19.442a.657.657,0,0,1-.084-.227.27.27,0,0,0-.536.044c0,.039-.009.385-.276.414a.659.659,0,0,1,0-.353.27.27,0,0,0-.414-.285l-.151.1c-.071-1.564-.236-3.387-.238-3.41a.27.27,0,1,0-.537.049c0,.025.193,2.134.252,3.744l-.041.04a.7.7,0,0,0-.59-.464.984.984,0,0,0-.95.6.638.638,0,0,0,.206.8.9.9,0,0,0,.8.037,2.255,2.255,0,0,1-.439.832,1.132,1.132,0,0,1-.862.439.709.709,0,0,1-.524-.223,1.54,1.54,0,0,1-.285-.965.27.27,0,0,0-.254-.283.264.264,0,0,0-.284.254,2.069,2.069,0,0,0,.424,1.356,1.237,1.237,0,0,0,.9.4h.054a1.643,1.643,0,0,0,1.238-.628,2.79,2.79,0,0,0,.618-1.382,3.057,3.057,0,0,1-1.294,2.422,1.347,1.347,0,0,1-1.351.1,1.157,1.157,0,0,1-.593-1.141.27.27,0,0,0-.535-.067,1.694,1.694,0,0,0,.89,1.691,1.834,1.834,0,0,0,.817.195,2,2,0,0,0,1.058-.319,3.586,3.586,0,0,0,1.549-2.882C120.362,170.754,120.359,170.564,120.353,170.365Zm-1.626.278c-.048-.032-.011-.134,0-.154a.458.458,0,0,1,.376-.265h.022c.034,0,.126.012.165.215,0,.022.008.044.011.066C119,170.683,118.8,170.688,118.727,170.643Z" transform="translate(-114.892 -165.517)" fill="#f5f5f5"/>
      <path id="Path_3868" data-name="Path 3868" d="M102.247,243.75a.27.27,0,0,0-.369.1.556.556,0,0,1-.046.064l-.009-.022a1.814,1.814,0,0,1,.008-.915.27.27,0,0,0-.521-.139,2.322,2.322,0,0,0,.008,1.243c.124.33.314.413.452.424l.036,0a.708.708,0,0,0,.537-.385A.269.269,0,0,0,102.247,243.75Z" transform="translate(-101.226 -236.144)" fill="#f5f5f5"/>
      <path id="Path_3869" data-name="Path 3869" d="M175.4,165.022a.268.268,0,0,0,.166-.058l1.36-1.068a.26.26,0,0,0,.045-.052.675.675,0,1,0-.775-.06l-.962.756a.27.27,0,0,0,.167.482Zm1.225-1.888a.135.135,0,1,1-.135.135A.135.135,0,0,1,176.624,163.134Z" transform="translate(-169.401 -162.309)" fill="#f5f5f5"/>
      <path id="Path_3870" data-name="Path 3870" d="M185.548,190.446a.269.269,0,0,0-.341.17.824.824,0,0,0,.105.8.544.544,0,0,0,.4.154,1.185,1.185,0,0,0,.373-.069.27.27,0,1,0-.171-.512.935.935,0,0,1-.22.047.516.516,0,0,1,.022-.247A.269.269,0,0,0,185.548,190.446Z" transform="translate(-178.644 -187.988)" fill="#f5f5f5"/>
      <path id="Path_3871" data-name="Path 3871" d="M227.81,163.515a.27.27,0,0,0,.335-.183l.157-.539a.27.27,0,1,0-.518-.151l-.157.539A.27.27,0,0,0,227.81,163.515Z" transform="translate(-217.819 -162.172)" fill="#f5f5f5"/>
      <path id="Path_3872" data-name="Path 3872" d="M206.1,160.21a.27.27,0,1,0,.272-.466c-.054-.032-.047-.121-.045-.139a.212.212,0,0,1,.124-.18.27.27,0,0,0-.16-.515.741.741,0,0,0-.5.634A.665.665,0,0,0,206.1,160.21Z" transform="translate(-197.685 -158.898)" fill="#f5f5f5"/>
      <path id="Path_3873" data-name="Path 3873" d="M179.024,232.19a.27.27,0,0,0-.051.535.507.507,0,0,1,.051.274.27.27,0,1,0,.539,0C179.563,232.2,179.046,232.19,179.024,232.19Z" transform="translate(-172.745 -226.509)" fill="#f5f5f5"/>
      <path id="Path_3874" data-name="Path 3874" d="M234.961,208.6a.621.621,0,0,0,.1.008.922.922,0,0,0,.638-.319.27.27,0,1,0-.381-.381c-.161.161-.248.165-.27.16-.051-.007-.1-.075-.109-.093a.27.27,0,0,0-.481.244A.729.729,0,0,0,234.961,208.6Z" transform="translate(-224.107 -204.037)" fill="#f5f5f5"/>
      <path id="Path_3875" data-name="Path 3875" d="M294.115,191.01l0-.012a.27.27,0,0,0-.511.173.6.6,0,0,0,.439.42.454.454,0,0,0,.059,0,.66.66,0,0,0,.522-.36.27.27,0,1,0-.449-.3A.823.823,0,0,1,294.115,191.01Z" transform="translate(-278.676 -188.342)" fill="#f5f5f5"/>
      <path id="Path_3876" data-name="Path 3876" d="M206.914,173.08c0-1.15-.051-2.229-.121-3.175a13.655,13.655,0,0,1,.947,1.921.27.27,0,1,0,.505-.19,17.867,17.867,0,0,0-1.56-2.956c-.147-1.453-.313-2.375-.315-2.391a.27.27,0,0,0-.531.1c0,.012.087.487.189,1.286-.207-.307-.4-.585-.561-.813l.013,0a.27.27,0,1,0,.171-.512l-.809-.27a.268.268,0,0,0-.3.1.272.272,0,0,0-.039.083.588.588,0,0,0-.563-.135.459.459,0,0,0-.258.48,2.437,2.437,0,0,0,.186.764c.159.45.258.781.09.938a.3.3,0,0,1-.276.1c-.166-.042-.331-.264-.441-.593a.25.25,0,0,0-.022-.037,4.587,4.587,0,0,0-.082-1.492.27.27,0,0,0-.529.106,2.568,2.568,0,0,1-.141,1.922.484.484,0,0,1-.4.183.155.155,0,0,1-.129-.06,2.6,2.6,0,0,1-.143-1.52.27.27,0,0,0-.267-.308c-.464,0-.64.528-.8.994-.068.2-.2.585-.284.625-.163,0-.269-.479-.27-.809a.27.27,0,0,0-.27-.269h0a.269.269,0,0,0-.269.269c0,.622.212,1.349.809,1.349.445,0,.625-.485.776-.935a1.691,1.691,0,0,0,.306.958.692.692,0,0,0,.537.246,1.026,1.026,0,0,0,.82-.38,1.244,1.244,0,0,0,.1-.149,1.006,1.006,0,0,0,.565.424.777.777,0,0,0,.191.024.856.856,0,0,0,.587-.251.8.8,0,0,0,.09-.109.727.727,0,0,0,.2.03,1.091,1.091,0,0,0,.559-.172.27.27,0,0,0-.29-.455.572.572,0,0,1-.305.08,2.784,2.784,0,0,0-.2-.886,3.74,3.74,0,0,1-.14-.451c.022.019.044.038.063.057a.27.27,0,0,0,.381,0,.258.258,0,0,0,.039-.059c.28.385.855,1.194,1.446,2.127.113,1.147.212,2.61.212,4.214a.27.27,0,0,0,.539,0Z" transform="translate(-192.005 -165.511)" fill="#f5f5f5"/>
      <path id="Path_3877" data-name="Path 3877" d="M293.856,167.155a.27.27,0,0,0,.54,0,2.75,2.75,0,0,0-.3-.93.27.27,0,0,0-.482.241A2.394,2.394,0,0,1,293.856,167.155Z" transform="translate(-278.677 -165.52)" fill="#f5f5f5"/>
      <path id="Path_3878" data-name="Path 3878" d="M263.741,250.158a.269.269,0,0,0-.362.119.775.775,0,0,1-.112.16,1.509,1.509,0,0,1,.071-.5.27.27,0,0,0-.449-.27l-.539.539a.27.27,0,1,0,.381.381l.014-.014a.558.558,0,0,0,.144.283.494.494,0,0,0,.35.155.48.48,0,0,0,.074-.006.878.878,0,0,0,.547-.488A.269.269,0,0,0,263.741,250.158Z" transform="translate(-249.788 -242.56)" fill="#f5f5f5"/>
      <path id="Path_3879" data-name="Path 3879" d="M173.749,206.254h-1.9q.025-.1.052-.192c.758-.158,1.209-.4,1.341-.729a.6.6,0,0,0-.1-.605.669.669,0,0,0-.682-.291c-.383.078-.725.491-.97,1.152a3.1,3.1,0,0,0-1.557.673,4.178,4.178,0,0,0-.559-1.793.27.27,0,1,0-.449.3,3.894,3.894,0,0,1,.494,2.008,2.134,2.134,0,0,1-1.618,2.158c-.3,0-.435-.36-.494-.664a3.1,3.1,0,0,0,1.295-1.428,2.145,2.145,0,0,0-.179-1.462l-.02-.047.017.016a.27.27,0,1,0,.381-.381c-.158-.158-.464-.406-.742-.289a.459.459,0,0,0-.258.48,1.147,1.147,0,0,0,.126.434,1.63,1.63,0,0,1,.152,1.119,2.282,2.282,0,0,1-.883.974.265.265,0,0,0-.2-.1h0a.269.269,0,0,0-.269.269c0,.049,0,.1.005.154a14.179,14.179,0,0,1-1.735.949.27.27,0,0,0,.112.515.266.266,0,0,0,.111-.024,15.538,15.538,0,0,0,1.611-.863,1.049,1.049,0,0,0,.975.887,2.291,2.291,0,0,0,1.8-1.319,1.565,1.565,0,0,0,.18.257,3.04,3.04,0,0,0,2.061.792.27.27,0,0,0,.019-.539.578.578,0,0,1-.337-.164.462.462,0,0,1-.088-.354c.028-.332,1.1-.581,2.045-.6a.27.27,0,0,0,.25-.179l.27-.758a.27.27,0,0,0-.254-.36Zm-1.184-1.288a.1.1,0,0,1,.021,0c.026,0,.067.013.121.086.01.014.043.061.035.081-.031.076-.217.2-.605.317C172.307,205.114,172.473,204.984,172.565,204.966Zm-1.629,3.545a1.651,1.651,0,0,1-.747-.454,1.146,1.146,0,0,1-.239-.95.8.8,0,0,1,.056-.114c.38-.035,1.394.115,1.465.405a.906.906,0,0,0-.57.7A1.137,1.137,0,0,0,170.936,208.511Z" transform="translate(-159.901 -200.826)" fill="#f5f5f5"/>
      <path id="Path_3880" data-name="Path 3880" d="M292.251,167.064l-.27-.809a.27.27,0,0,0-.524.112c.186,1.861.538,5.491.538,5.907,0,.374-.665,1.11-1.739,1.647a.27.27,0,0,0,.241.482c.981-.491,2.037-1.366,2.037-2.129,0-.4-.276-3.266-.434-4.876A.27.27,0,0,0,292.251,167.064Z" transform="translate(-275.467 -165.515)" fill="#f5f5f5"/>
      <path id="Path_3881" data-name="Path 3881" d="M336.234,194.544a.27.27,0,0,0,.452-.257,1.361,1.361,0,0,1-.039-.524.274.274,0,0,0,.28-.231.27.27,0,0,0-.229-.305.487.487,0,0,0-.444.15.617.617,0,0,0-.136.289l-.312-.312a.27.27,0,1,0-.381.381Z" transform="translate(-317.2 -190.56)" fill="#f5f5f5"/>
      <path id="Path_3882" data-name="Path 3882" d="M341.253,213.315l-1.011.725a.27.27,0,1,0,.314.438l1.011-.725a.27.27,0,1,0-.314-.438Z" transform="translate(-321.612 -209.05)" fill="#f5f5f5"/>
      <path id="Path_3883" data-name="Path 3883" d="M352.8,225.767a.27.27,0,0,0,.024.358.748.748,0,0,1,.055.388.27.27,0,0,0,.26.279h.01a.27.27,0,0,0,.269-.26c.02-.55-.161-.752-.239-.813A.27.27,0,0,0,352.8,225.767Z" transform="translate(-333.248 -220.488)" fill="#f5f5f5"/>
      <path id="Path_3884" data-name="Path 3884" d="M326.259,172.786a.27.27,0,0,0,.27-.27c0-.4-.02-.842-.054-1.3a9.847,9.847,0,0,1,.632,1.175.269.269,0,0,0,.248.164.266.266,0,0,0,.106-.022.27.27,0,0,0,.142-.354,14.845,14.845,0,0,0-1.234-2.128c-.106-.99-.244-1.96-.351-2.656a.261.261,0,0,0,.168-.042.152.152,0,1,1,.149-.166.981.981,0,0,1,.1.66.27.27,0,0,0,.21.319.283.283,0,0,0,.055.006.27.27,0,0,0,.264-.215,1.529,1.529,0,0,0-.171-1.059.271.271,0,0,0-.372-.083.267.267,0,0,0-.12.244.261.261,0,0,0-.03-.078l-.455-.708a.27.27,0,0,0-.493.193c0,.021.21,1.2.393,2.631-.207-.292-.413-.577-.614-.85-.033-.408-.065-.785-.094-1.1a.275.275,0,0,0,.044-.017.27.27,0,0,0,.121-.362l-.27-.539a.27.27,0,0,0-.51.147c.032.322.066.678.1,1.052-.171-.225-.328-.431-.464-.605a.27.27,0,0,0-.055-.446l-.539-.27a.27.27,0,0,0-.331.41c.015.018.679.851,1.473,1.925a21.682,21.682,0,0,1,.1,4.024c-.024.071-.065.155-.1.158-.163.023-.552-.342-.747-.732a.376.376,0,0,0-.361-.244c-.29.018-.4.337-.608.916a3.8,3.8,0,0,1-.536,1.142,3.063,3.063,0,0,1-.335-1.062.268.268,0,0,0,.521-.091c0-.4-.281-3.465-.438-5.144a.27.27,0,0,0,.155-.335l-.27-.809a.27.27,0,0,0-.524.111c.183,1.924.527,5.64.538,6.153l0-.014a.27.27,0,1,0-.534.076c.079.551.28,1.5.744,1.654a.45.45,0,0,0,.144.023.53.53,0,0,0,.38-.176,3.89,3.89,0,0,0,.668-1.347c.04-.112.087-.244.131-.357.247.361.679.811,1.116.776a.662.662,0,0,0,.577-.525,15.188,15.188,0,0,0-.01-3.367c.227.318.455.645.672.967.084.808.144,1.617.144,2.282A.27.27,0,0,0,326.259,172.786Z" transform="translate(-304.354 -165.521)" fill="#f5f5f5"/>
      <path id="Path_3885" data-name="Path 3885" d="M383.414,171.766c-.191-1.423-.457-3.072-.626-4.084a.265.265,0,0,0,.226-.048.269.269,0,0,0,.051-.378l-.489-.641a.27.27,0,0,0-.48.21c0,.028.486,2.8.783,5.012a2.528,2.528,0,0,1-.444,2.024,1.193,1.193,0,0,1-.989.369.27.27,0,1,0-.034.538c.046,0,.09,0,.135,0a1.7,1.7,0,0,0,1.283-.544A3.011,3.011,0,0,0,383.414,171.766Z" transform="translate(-359.462 -165.919)" fill="#f5f5f5"/>
      <path id="Path_3886" data-name="Path 3886" d="M371.087,256.219a.273.273,0,0,0,.013.379.113.113,0,0,1,.032.056.127.127,0,0,1-.041.06.27.27,0,1,0,.382.381.612.612,0,0,0,.2-.46.642.642,0,0,0-.212-.439A.267.267,0,0,0,371.087,256.219Z" transform="translate(-350.102 -248.595)" fill="#f5f5f5"/>
      <path id="Path_3887" data-name="Path 3887" d="M160.679,327.16h-1.888v-.27a.27.27,0,1,0-.539,0v.27H143.957a3.765,3.765,0,0,0,2.427.809h11.867v.539a.27.27,0,0,0,.27.27h2.158a.809.809,0,1,0,0-1.618Zm0,1.079h-1.888v-.27h2.158l-.048-.145a.262.262,0,0,1,.048.145A.27.27,0,0,1,160.679,328.239Z" transform="translate(-140.645 -313.621)" fill="#f5f5f5"/>
    </g>
  </g>
</svg>
