<svg xmlns="http://www.w3.org/2000/svg" width="18.114" height="22.9" viewBox="0 0 18.114 22.9">
  <g id="bell" transform="translate(-53.506)">
    <path id="Path_3980" data-name="Path 3980" d="M204.923,0a2.385,2.385,0,0,0-2.385,2.385,2.377,2.377,0,0,0,.031.342.477.477,0,0,0,.477.408.487.487,0,0,0,.135-.019,6.156,6.156,0,0,1,3.493,0,.489.489,0,0,0,.394-.072.51.51,0,0,0,.217-.347,2.162,2.162,0,0,0,.029-.313A2.385,2.385,0,0,0,204.927,0Z" transform="translate(-142.366 0)" fill="#a39447"/>
    <path id="Path_3981" data-name="Path 3981" d="M187.406,426.667h-5.725a.477.477,0,0,0-.477.477,3.34,3.34,0,1,0,6.679,0A.477.477,0,0,0,187.406,426.667Z" transform="translate(-121.986 -407.584)" fill="#a39447"/>
    <path id="Path_3982" data-name="Path 3982" d="M71.451,58.356c-.151-.333-.341-.705-.551-1.115a15.534,15.534,0,0,1-2.141-7.194c0-3.781-2-6.556-5.1-7.068a6.1,6.1,0,0,0-5.021,1.464,6.7,6.7,0,0,0-2.29,5.267,15.235,15.235,0,0,1-2.13,7.546c-.205.4-.392.773-.541,1.1A1.885,1.885,0,0,0,55.4,61.019H69.729a1.885,1.885,0,0,0,1.723-2.663h0Z" transform="translate(0 -40.982)" fill="#ffd500"/>
    <path id="Path_3983" data-name="Path 3983" d="M103.453,99.646a.477.477,0,0,1-.426-.691l.154-.3a17.48,17.48,0,0,0,2.341-8.072c0-2.421,1.125-5.248,4.294-5.248a.477.477,0,1,1,0,.954c-3.1,0-3.34,3.286-3.34,4.294a18.291,18.291,0,0,1-2.445,8.506l-.149.295A.477.477,0,0,1,103.453,99.646Z" transform="translate(-47.257 -81.517)" fill="#e9e9e9"/>
  </g>
</svg>
