<svg xmlns="http://www.w3.org/2000/svg" width="41.408" height="27.129" viewBox="0 0 41.408 27.129">
  <g id="united-states" transform="translate(0 -88.276)">
    <path id="Path_3816" data-name="Path 3816" d="M40.694,115.405H.714A.714.714,0,0,1,0,114.691V88.99a.714.714,0,0,1,.714-.714h39.98a.714.714,0,0,1,.714.714v25.7A.714.714,0,0,1,40.694,115.405Z" transform="translate(0 0)" fill="#f5f5f5"/>
    <g id="Group_1438" data-name="Group 1438" transform="translate(0 88.276)">
      <path id="Path_3817" data-name="Path 3817" d="M41.408,90.363H0V88.99a.714.714,0,0,1,.714-.714h39.98a.714.714,0,0,1,.714.714v1.373Z" transform="translate(0 -88.276)" fill="#ff4b55"/>
      <rect id="Rectangle_443" data-name="Rectangle 443" width="41.408" height="2.087" transform="translate(0 8.347)" fill="#ff4b55"/>
      <rect id="Rectangle_444" data-name="Rectangle 444" width="41.408" height="2.087" transform="translate(0 4.174)" fill="#ff4b55"/>
      <path id="Path_3818" data-name="Path 3818" d="M41.408,245.185H.714A.714.714,0,0,1,0,244.471V243.1H41.408Z" transform="translate(0 -230.577)" fill="#ff4b55"/>
      <rect id="Rectangle_445" data-name="Rectangle 445" width="41.408" height="2.087" transform="translate(0 20.869)" fill="#ff4b55"/>
      <path id="Path_3819" data-name="Path 3819" d="M40.694,400.008H.714A.714.714,0,0,1,0,399.294v-1.373H41.408v1.373A.714.714,0,0,1,40.694,400.008Z" transform="translate(0 -372.879)" fill="#ff4b55"/>
      <rect id="Rectangle_446" data-name="Rectangle 446" width="41.408" height="2.087" transform="translate(0 16.695)" fill="#ff4b55"/>
    </g>
    <path id="Path_3820" data-name="Path 3820" d="M18.562,88.277H.714A.714.714,0,0,0,0,88.991v13.18a.714.714,0,0,0,.714.714H18.562a.714.714,0,0,0,.714-.714V88.991A.714.714,0,0,0,18.562,88.277Z" transform="translate(0 -0.001)" fill="#41479b"/>
    <g id="Group_1439" data-name="Group 1439" transform="translate(1.153 89.869)">
      <path id="Path_3821" data-name="Path 3821" d="M15.1,108.015l.158.474.5,0a.067.067,0,0,1,.039.121l-.4.3.151.476a.067.067,0,0,1-.1.075l-.406-.29-.406.29a.067.067,0,0,1-.1-.075l.151-.476-.4-.3a.067.067,0,0,1,.039-.121l.5,0,.158-.474A.067.067,0,0,1,15.1,108.015Z" transform="translate(-14.253 -107.969)" fill="#f5f5f5"/>
      <path id="Path_3822" data-name="Path 3822" d="M15.1,138.67l.158.474.5,0a.067.067,0,0,1,.039.121l-.4.3.151.476a.067.067,0,0,1-.1.075l-.406-.29-.406.291a.067.067,0,0,1-.1-.075l.151-.476-.4-.3a.067.067,0,0,1,.039-.121l.5,0,.158-.474A.067.067,0,0,1,15.1,138.67Z" transform="translate(-14.253 -136.144)" fill="#f5f5f5"/>
      <path id="Path_3823" data-name="Path 3823" d="M15.1,169.324l.158.474.5,0a.067.067,0,0,1,.039.121l-.4.3.151.476a.067.067,0,0,1-.1.075l-.406-.29-.406.291a.067.067,0,0,1-.1-.075l.151-.476-.4-.3a.067.067,0,0,1,.039-.121l.5,0,.158-.474A.067.067,0,0,1,15.1,169.324Z" transform="translate(-14.253 -164.319)" fill="#f5f5f5"/>
      <path id="Path_3824" data-name="Path 3824" d="M15.1,199.978l.158.474.5,0a.067.067,0,0,1,.039.121l-.4.3.151.476a.067.067,0,0,1-.1.075l-.406-.29-.406.29a.067.067,0,0,1-.1-.075l.151-.476-.4-.3a.067.067,0,0,1,.039-.121l.5,0,.158-.474A.067.067,0,0,1,15.1,199.978Z" transform="translate(-14.253 -192.494)" fill="#f5f5f5"/>
      <path id="Path_3825" data-name="Path 3825" d="M15.1,230.631l.158.474.5,0a.067.067,0,0,1,.039.121l-.4.3.151.476a.067.067,0,0,1-.1.075l-.406-.29-.406.29a.067.067,0,0,1-.1-.075l.151-.476-.4-.3a.067.067,0,0,1,.039-.121l.5,0,.158-.474A.067.067,0,0,1,15.1,230.631Z" transform="translate(-14.253 -220.669)" fill="#f5f5f5"/>
      <path id="Path_3826" data-name="Path 3826" d="M38.9,123.044l.158.474.5,0a.067.067,0,0,1,.039.121l-.4.3.151.476a.067.067,0,0,1-.1.075l-.406-.29-.406.29a.067.067,0,0,1-.1-.075l.151-.476-.4-.3a.067.067,0,0,1,.039-.121l.5,0,.158-.474A.067.067,0,0,1,38.9,123.044Z" transform="translate(-36.121 -121.783)" fill="#f5f5f5"/>
      <path id="Path_3827" data-name="Path 3827" d="M38.9,153.7l.158.474.5,0a.067.067,0,0,1,.039.121l-.4.3.151.476a.067.067,0,0,1-.1.075l-.406-.29-.406.29a.067.067,0,0,1-.1-.075l.151-.476-.4-.3a.067.067,0,0,1,.039-.121l.5,0,.158-.474A.067.067,0,0,1,38.9,153.7Z" transform="translate(-36.121 -149.958)" fill="#f5f5f5"/>
      <path id="Path_3828" data-name="Path 3828" d="M38.9,184.353l.158.474.5,0a.067.067,0,0,1,.039.121l-.4.3.151.476a.067.067,0,0,1-.1.075l-.406-.29-.406.29a.067.067,0,0,1-.1-.075l.151-.476-.4-.3a.067.067,0,0,1,.039-.121l.5,0,.158-.474A.067.067,0,0,1,38.9,184.353Z" transform="translate(-36.121 -178.133)" fill="#f5f5f5"/>
      <path id="Path_3829" data-name="Path 3829" d="M38.9,215.007l.158.474.5,0a.067.067,0,0,1,.039.121l-.4.3.151.476a.067.067,0,0,1-.1.075l-.406-.29-.406.29a.067.067,0,0,1-.1-.075l.151-.476-.4-.3a.067.067,0,0,1,.039-.121l.5,0,.158-.474A.067.067,0,0,1,38.9,215.007Z" transform="translate(-36.121 -206.309)" fill="#f5f5f5"/>
      <path id="Path_3830" data-name="Path 3830" d="M62.691,108.015l.158.474.5,0a.067.067,0,0,1,.039.121l-.4.3.151.476a.067.067,0,0,1-.1.075l-.406-.291-.406.291a.067.067,0,0,1-.1-.075l.151-.476-.4-.3a.067.067,0,0,1,.039-.121l.5,0,.158-.474A.067.067,0,0,1,62.691,108.015Z" transform="translate(-57.99 -107.969)" fill="#f5f5f5"/>
      <path id="Path_3831" data-name="Path 3831" d="M62.691,138.669l.158.474.5,0a.067.067,0,0,1,.039.121l-.4.3.151.476a.067.067,0,0,1-.1.075l-.406-.29-.406.29a.067.067,0,0,1-.1-.075l.151-.476-.4-.3a.067.067,0,0,1,.039-.121l.5,0,.158-.474A.067.067,0,0,1,62.691,138.669Z" transform="translate(-57.99 -136.144)" fill="#f5f5f5"/>
      <path id="Path_3832" data-name="Path 3832" d="M62.691,169.323l.158.474.5,0a.067.067,0,0,1,.039.121l-.4.3.151.476a.067.067,0,0,1-.1.075l-.406-.29-.406.29a.067.067,0,0,1-.1-.075l.151-.476-.4-.3a.067.067,0,0,1,.039-.121l.5,0,.158-.474A.067.067,0,0,1,62.691,169.323Z" transform="translate(-57.99 -164.319)" fill="#f5f5f5"/>
      <path id="Path_3833" data-name="Path 3833" d="M62.691,199.978l.158.474.5,0a.067.067,0,0,1,.039.121l-.4.3.151.476a.067.067,0,0,1-.1.075l-.406-.29-.406.29a.067.067,0,0,1-.1-.075l.151-.476-.4-.3a.067.067,0,0,1,.039-.121l.5,0,.158-.474A.067.067,0,0,1,62.691,199.978Z" transform="translate(-57.99 -192.494)" fill="#f5f5f5"/>
      <path id="Path_3834" data-name="Path 3834" d="M62.691,230.631l.158.474.5,0a.067.067,0,0,1,.039.121l-.4.3.151.476a.067.067,0,0,1-.1.075l-.406-.29-.406.29a.067.067,0,0,1-.1-.075l.151-.476-.4-.3a.067.067,0,0,1,.039-.121l.5,0,.158-.474A.067.067,0,0,1,62.691,230.631Z" transform="translate(-57.99 -220.668)" fill="#f5f5f5"/>
      <path id="Path_3835" data-name="Path 3835" d="M86.485,123.044l.158.474.5,0a.067.067,0,0,1,.039.121l-.4.3.151.476a.067.067,0,0,1-.1.075l-.406-.29-.406.29a.067.067,0,0,1-.1-.075l.151-.476-.4-.3a.067.067,0,0,1,.039-.121l.5,0,.158-.474A.067.067,0,0,1,86.485,123.044Z" transform="translate(-79.86 -121.783)" fill="#f5f5f5"/>
      <path id="Path_3836" data-name="Path 3836" d="M86.485,153.7l.158.474.5,0a.067.067,0,0,1,.039.121l-.4.3.151.476a.067.067,0,0,1-.1.075l-.406-.29-.406.29a.067.067,0,0,1-.1-.075l.151-.476-.4-.3a.067.067,0,0,1,.039-.121l.5,0,.158-.474A.067.067,0,0,1,86.485,153.7Z" transform="translate(-79.86 -149.958)" fill="#f5f5f5"/>
      <path id="Path_3837" data-name="Path 3837" d="M86.485,184.353l.158.474.5,0a.067.067,0,0,1,.039.121l-.4.3.151.476a.067.067,0,0,1-.1.075l-.406-.29-.406.29a.067.067,0,0,1-.1-.075l.151-.476-.4-.3a.067.067,0,0,1,.039-.121l.5,0,.158-.474A.067.067,0,0,1,86.485,184.353Z" transform="translate(-79.86 -178.133)" fill="#f5f5f5"/>
      <path id="Path_3838" data-name="Path 3838" d="M86.485,215.007l.158.474.5,0a.067.067,0,0,1,.039.121l-.4.3.151.476a.067.067,0,0,1-.1.075l-.406-.29-.406.29a.067.067,0,0,1-.1-.075l.151-.476-.4-.3a.067.067,0,0,1,.039-.121l.5,0,.158-.474A.067.067,0,0,1,86.485,215.007Z" transform="translate(-79.86 -206.309)" fill="#f5f5f5"/>
      <path id="Path_3839" data-name="Path 3839" d="M110.277,108.015l.158.474.5,0a.067.067,0,0,1,.039.121l-.4.3.151.476a.067.067,0,0,1-.1.075l-.406-.291-.406.291a.067.067,0,0,1-.1-.075l.151-.476-.4-.3a.067.067,0,0,1,.039-.121l.5,0,.158-.474A.067.067,0,0,1,110.277,108.015Z" transform="translate(-101.728 -107.969)" fill="#f5f5f5"/>
      <path id="Path_3840" data-name="Path 3840" d="M110.277,138.669l.158.474.5,0a.067.067,0,0,1,.039.121l-.4.3.151.476a.067.067,0,0,1-.1.075l-.406-.29-.406.29a.067.067,0,0,1-.1-.075l.151-.476-.4-.3a.067.067,0,0,1,.039-.121l.5,0,.158-.474A.067.067,0,0,1,110.277,138.669Z" transform="translate(-101.728 -136.144)" fill="#f5f5f5"/>
      <path id="Path_3841" data-name="Path 3841" d="M110.277,169.323l.158.474.5,0a.067.067,0,0,1,.039.121l-.4.3.151.476a.067.067,0,0,1-.1.075l-.406-.29-.406.29a.067.067,0,0,1-.1-.075l.151-.476-.4-.3a.067.067,0,0,1,.039-.121l.5,0,.158-.474A.067.067,0,0,1,110.277,169.323Z" transform="translate(-101.728 -164.319)" fill="#f5f5f5"/>
      <path id="Path_3842" data-name="Path 3842" d="M110.277,199.978l.158.474.5,0a.067.067,0,0,1,.039.121l-.4.3.151.476a.067.067,0,0,1-.1.075l-.406-.29-.406.29a.067.067,0,0,1-.1-.075l.151-.476-.4-.3a.067.067,0,0,1,.039-.121l.5,0,.158-.474A.067.067,0,0,1,110.277,199.978Z" transform="translate(-101.728 -192.494)" fill="#f5f5f5"/>
      <path id="Path_3843" data-name="Path 3843" d="M110.277,230.631l.158.474.5,0a.067.067,0,0,1,.039.121l-.4.3.151.476a.067.067,0,0,1-.1.075l-.406-.29-.406.29a.067.067,0,0,1-.1-.075l.151-.476-.4-.3a.067.067,0,0,1,.039-.121l.5,0,.158-.474A.067.067,0,0,1,110.277,230.631Z" transform="translate(-101.728 -220.668)" fill="#f5f5f5"/>
      <path id="Path_3844" data-name="Path 3844" d="M134.071,123.044l.158.474.5,0a.067.067,0,0,1,.039.121l-.4.3.151.476a.067.067,0,0,1-.1.075l-.406-.29-.406.29a.067.067,0,0,1-.1-.075l.151-.476-.4-.3a.067.067,0,0,1,.039-.121l.5,0,.158-.474A.067.067,0,0,1,134.071,123.044Z" transform="translate(-123.597 -121.783)" fill="#f5f5f5"/>
      <path id="Path_3845" data-name="Path 3845" d="M134.071,153.7l.158.474.5,0a.067.067,0,0,1,.039.121l-.4.3.151.476a.067.067,0,0,1-.1.075l-.406-.29-.406.29a.067.067,0,0,1-.1-.075l.151-.476-.4-.3a.067.067,0,0,1,.039-.121l.5,0,.158-.474A.067.067,0,0,1,134.071,153.7Z" transform="translate(-123.597 -149.958)" fill="#f5f5f5"/>
      <path id="Path_3846" data-name="Path 3846" d="M134.071,184.353l.158.474.5,0a.067.067,0,0,1,.039.121l-.4.3.151.476a.067.067,0,0,1-.1.075l-.406-.29-.406.29a.067.067,0,0,1-.1-.075l.151-.476-.4-.3a.067.067,0,0,1,.039-.121l.5,0,.158-.474A.067.067,0,0,1,134.071,184.353Z" transform="translate(-123.597 -178.133)" fill="#f5f5f5"/>
      <path id="Path_3847" data-name="Path 3847" d="M134.071,215.007l.158.474.5,0a.067.067,0,0,1,.039.121l-.4.3.151.476a.067.067,0,0,1-.1.075l-.406-.29-.406.29a.067.067,0,0,1-.1-.075l.151-.476-.4-.3a.067.067,0,0,1,.039-.121l.5,0,.158-.474A.067.067,0,0,1,134.071,215.007Z" transform="translate(-123.597 -206.309)" fill="#f5f5f5"/>
      <path id="Path_3848" data-name="Path 3848" d="M157.865,108.015l.158.474.5,0a.067.067,0,0,1,.039.121l-.4.3.151.476a.067.067,0,0,1-.1.075l-.406-.291-.406.291a.067.067,0,0,1-.1-.075l.151-.476-.4-.3a.067.067,0,0,1,.039-.121l.5,0,.158-.474A.067.067,0,0,1,157.865,108.015Z" transform="translate(-145.467 -107.969)" fill="#f5f5f5"/>
      <path id="Path_3849" data-name="Path 3849" d="M157.865,138.669l.158.474.5,0a.067.067,0,0,1,.039.121l-.4.3.151.476a.067.067,0,0,1-.1.075l-.406-.29-.406.29a.067.067,0,0,1-.1-.075l.151-.476-.4-.3a.067.067,0,0,1,.039-.121l.5,0,.158-.474A.067.067,0,0,1,157.865,138.669Z" transform="translate(-145.467 -136.144)" fill="#f5f5f5"/>
      <path id="Path_3850" data-name="Path 3850" d="M157.865,169.323l.158.474.5,0a.067.067,0,0,1,.039.121l-.4.3.151.476a.067.067,0,0,1-.1.075l-.406-.29-.406.29a.067.067,0,0,1-.1-.075l.151-.476-.4-.3a.067.067,0,0,1,.039-.121l.5,0,.158-.474A.067.067,0,0,1,157.865,169.323Z" transform="translate(-145.467 -164.319)" fill="#f5f5f5"/>
      <path id="Path_3851" data-name="Path 3851" d="M157.865,199.978l.158.474.5,0a.067.067,0,0,1,.039.121l-.4.3.151.476a.067.067,0,0,1-.1.075l-.406-.29-.406.29a.067.067,0,0,1-.1-.075l.151-.476-.4-.3a.067.067,0,0,1,.039-.121l.5,0,.158-.474A.067.067,0,0,1,157.865,199.978Z" transform="translate(-145.467 -192.494)" fill="#f5f5f5"/>
      <path id="Path_3852" data-name="Path 3852" d="M157.865,230.631l.158.474.5,0a.067.067,0,0,1,.039.121l-.4.3.151.476a.067.067,0,0,1-.1.075l-.406-.29-.406.29a.067.067,0,0,1-.1-.075l.151-.476-.4-.3a.067.067,0,0,1,.039-.121l.5,0,.158-.474A.067.067,0,0,1,157.865,230.631Z" transform="translate(-145.467 -220.668)" fill="#f5f5f5"/>
      <path id="Path_3853" data-name="Path 3853" d="M181.658,123.044l.158.474.5,0a.067.067,0,0,1,.039.121l-.4.3.151.476a.067.067,0,0,1-.1.075l-.406-.29-.406.29a.067.067,0,0,1-.1-.075l.151-.476-.4-.3a.067.067,0,0,1,.039-.121l.5,0,.158-.474A.067.067,0,0,1,181.658,123.044Z" transform="translate(-167.336 -121.783)" fill="#f5f5f5"/>
      <path id="Path_3854" data-name="Path 3854" d="M181.658,153.7l.158.474.5,0a.067.067,0,0,1,.039.121l-.4.3.151.476a.067.067,0,0,1-.1.075l-.406-.29-.406.29a.067.067,0,0,1-.1-.075l.151-.476-.4-.3a.067.067,0,0,1,.039-.121l.5,0,.158-.474A.067.067,0,0,1,181.658,153.7Z" transform="translate(-167.336 -149.958)" fill="#f5f5f5"/>
      <path id="Path_3855" data-name="Path 3855" d="M181.658,184.353l.158.474.5,0a.067.067,0,0,1,.039.121l-.4.3.151.476a.067.067,0,0,1-.1.075l-.406-.29-.406.29a.067.067,0,0,1-.1-.075l.151-.476-.4-.3a.067.067,0,0,1,.039-.121l.5,0,.158-.474A.067.067,0,0,1,181.658,184.353Z" transform="translate(-167.336 -178.133)" fill="#f5f5f5"/>
      <path id="Path_3856" data-name="Path 3856" d="M181.658,215.007l.158.474.5,0a.067.067,0,0,1,.039.121l-.4.3.151.476a.067.067,0,0,1-.1.075l-.406-.29-.406.29a.067.067,0,0,1-.1-.075l.151-.476-.4-.3a.067.067,0,0,1,.039-.121l.5,0,.158-.474A.067.067,0,0,1,181.658,215.007Z" transform="translate(-167.336 -206.309)" fill="#f5f5f5"/>
      <path id="Path_3857" data-name="Path 3857" d="M205.452,108.015l.158.474.5,0a.067.067,0,0,1,.039.121l-.4.3.151.476a.067.067,0,0,1-.1.075l-.406-.291-.406.291a.067.067,0,0,1-.1-.075l.151-.476-.4-.3a.067.067,0,0,1,.039-.121l.5,0,.158-.474A.067.067,0,0,1,205.452,108.015Z" transform="translate(-189.205 -107.969)" fill="#f5f5f5"/>
      <path id="Path_3858" data-name="Path 3858" d="M205.452,138.669l.158.474.5,0a.067.067,0,0,1,.039.121l-.4.3.151.476a.067.067,0,0,1-.1.075l-.406-.29-.406.29a.067.067,0,0,1-.1-.075l.151-.476-.4-.3a.067.067,0,0,1,.039-.121l.5,0,.158-.474A.067.067,0,0,1,205.452,138.669Z" transform="translate(-189.205 -136.144)" fill="#f5f5f5"/>
      <path id="Path_3859" data-name="Path 3859" d="M205.452,169.323l.158.474.5,0a.067.067,0,0,1,.039.121l-.4.3.151.476a.067.067,0,0,1-.1.075l-.406-.29-.406.29a.067.067,0,0,1-.1-.075l.151-.476-.4-.3a.067.067,0,0,1,.039-.121l.5,0,.158-.474A.067.067,0,0,1,205.452,169.323Z" transform="translate(-189.205 -164.319)" fill="#f5f5f5"/>
      <path id="Path_3860" data-name="Path 3860" d="M205.452,199.978l.158.474.5,0a.067.067,0,0,1,.039.121l-.4.3.151.476a.067.067,0,0,1-.1.075l-.406-.29-.406.29a.067.067,0,0,1-.1-.075l.151-.476-.4-.3a.067.067,0,0,1,.039-.121l.5,0,.158-.474A.067.067,0,0,1,205.452,199.978Z" transform="translate(-189.205 -192.494)" fill="#f5f5f5"/>
      <path id="Path_3861" data-name="Path 3861" d="M205.452,230.631l.158.474.5,0a.067.067,0,0,1,.039.121l-.4.3.151.476a.067.067,0,0,1-.1.075l-.406-.29-.406.29a.067.067,0,0,1-.1-.075l.151-.476-.4-.3a.067.067,0,0,1,.039-.121l.5,0,.158-.474A.067.067,0,0,1,205.452,230.631Z" transform="translate(-189.205 -220.668)" fill="#f5f5f5"/>
    </g>
  </g>
</svg>
