<svg id="language_1_" data-name="language (1)" xmlns="http://www.w3.org/2000/svg" width="22.667" height="22.666" viewBox="0 0 22.667 22.666">
  <path id="Path_4227" data-name="Path 4227" d="M134.3,316a5.979,5.979,0,0,0,3.19,2.909,10.162,10.162,0,0,1-.9-2.909Zm0,0" transform="translate(-128.352 -302.011)" fill="#fff"/>
  <path id="Path_4228" data-name="Path 4228" d="M134.3,133.209h2.287a10.162,10.162,0,0,1,.9-2.909A5.979,5.979,0,0,0,134.3,133.209Zm0,0" transform="translate(-128.352 -124.532)" fill="#fff"/>
  <path id="Path_4229" data-name="Path 4229" d="M218.118,121.113c-.014,0-.027,0-.041,0-.59.019-1.36,1.255-1.742,3.315h3.512C219.469,122.378,218.706,121.148,218.118,121.113Zm0,0" transform="translate(-206.758 -115.748)" fill="#fff"/>
  <path id="Path_4230" data-name="Path 4230" d="M218.078,319.316c.014,0,.027,0,.041,0,.588-.035,1.35-1.264,1.729-3.311h-3.512C216.717,318.061,217.488,319.3,218.078,319.316Zm0,0" transform="translate(-206.759 -302.011)" fill="#fff"/>
  <path id="Path_4231" data-name="Path 4231" d="M122.312,227.328c0-.442.018-.887.054-1.328h-2.612a5.576,5.576,0,0,0,0,2.656h2.612C122.33,228.215,122.312,227.77,122.312,227.328Zm0,0" transform="translate(-114.299 -215.995)" fill="#fff"/>
  <path id="Path_4232" data-name="Path 4232" d="M306.234,131.359a10.271,10.271,0,0,1,.877,2.862h2.163A5.99,5.99,0,0,0,306.234,131.359Zm0,0" transform="translate(-292.677 -125.544)" fill="#fff"/>
  <path id="Path_4233" data-name="Path 4233" d="M329.831,227.328c0,.442-.018.887-.054,1.328h2.488a5.577,5.577,0,0,0,0-2.656h-2.488C329.813,226.441,329.831,226.886,329.831,227.328Zm0,0" transform="translate(-315.178 -215.995)" fill="#fff"/>
  <path id="Path_4234" data-name="Path 4234" d="M22.666,11.333a11.448,11.448,0,1,0-5.459,9.642l5.459,1.691-1.558-5.683a11.317,11.317,0,0,0,1.558-5.65Zm-11.28,7.3c-.018,0-.035.006-.053.006l-.02,0-.043,0a7.3,7.3,0,1,1,0-14.609l.043,0,.02,0c.018,0,.035.005.053.006a7.3,7.3,0,0,1,0,14.6Zm0,0" fill="#fff"/>
  <path id="Path_4235" data-name="Path 4235" d="M211.055,226c-.035.42-.055.863-.055,1.328s.02.908.055,1.328h3.874c.035-.42.055-.863.055-1.328s-.02-.908-.055-1.328Zm0,0" transform="translate(-201.659 -215.995)" fill="#fff"/>
  <path id="Path_4236" data-name="Path 4236" d="M306.234,318.862A5.99,5.99,0,0,0,309.273,316h-2.162A10.271,10.271,0,0,1,306.234,318.862Zm0,0" transform="translate(-292.677 -302.011)" fill="#fff"/>
</svg>
