<svg xmlns="http://www.w3.org/2000/svg" width="30.576" height="31" viewBox="0 0 30.576 31">
  <g id="Group_1967" data-name="Group 1967" transform="translate(-1978.778 -2641)">
    <path id="Path_2417" data-name="Path 2417" d="M116.475,109.409a9.744,9.744,0,1,1-11.134-15.663,12.682,12.682,0,1,0,13.017,13.017A9.725,9.725,0,0,1,116.475,109.409Z" transform="translate(1888.89 2547.254)" fill="#fcd57e"/>
    <g id="Group_1455" data-name="Group 1455" transform="translate(1978.778 2643.901)">
      <g id="Group_604" data-name="Group 604" transform="translate(0)">
        <path id="Path_2418" data-name="Path 2418" d="M308.218,95.461l.449,4.064.449-4.064,4.064-.449-4.064-.449-.449-4.064-.449,4.064-4.064.449Z" transform="translate(-286.039 -90.499)"/>
        <path id="Path_2419" data-name="Path 2419" d="M78.279,369l.322,2.911L78.923,369l2.911-.322-2.911-.322-.322-2.911-.322,2.911-2.911.322Z" transform="translate(-75.254 -343.816)"/>
        <rect id="Rectangle_225" data-name="Rectangle 225" width="0.815" height="0.815" transform="translate(13.149 12.816) rotate(-45)"/>
        <rect id="Rectangle_226" data-name="Rectangle 226" width="0.815" height="0.815" transform="translate(26.977 8.502) rotate(-45)"/>
        <rect id="Rectangle_227" data-name="Rectangle 227" width="0.815" height="0.815" transform="translate(29.423 15.666) rotate(-45)"/>
        <rect id="Rectangle_228" data-name="Rectangle 228" width="0.815" height="0.815" transform="translate(0 3.086) rotate(-45)"/>
        <rect id="Rectangle_229" data-name="Rectangle 229" width="0.815" height="0.815" transform="translate(21.264 26.446) rotate(-45)"/>
        <rect id="Rectangle_230" data-name="Rectangle 230" width="0.815" height="0.815" transform="translate(3.267 0.989) rotate(-45)"/>
      </g>
    </g>
  </g>
</svg>
