<svg id="sun" xmlns="http://www.w3.org/2000/svg" width="32.648" height="32.648" viewBox="0 0 32.648 32.648">
  <g id="Group_605" data-name="Group 605">
    <circle id="Ellipse_77" data-name="Ellipse 77" cx="9.235" cy="9.235" r="9.235" transform="translate(7.089 7.089)" fill="#ffd347"/>
    <path id="Path_2420" data-name="Path 2420" d="M248.756,3.625a.493.493,0,0,1-.493-.493V.493a.493.493,0,1,1,.987,0V3.132A.493.493,0,0,1,248.756,3.625Z" transform="translate(-232.432)" fill="#ffd347"/>
    <path id="Path_2421" data-name="Path 2421" d="M125.944,36.533a.493.493,0,0,1-.428-.247L124.2,34a.493.493,0,0,1,.855-.493l1.319,2.285a.493.493,0,0,1-.427.74Z" transform="translate(-116.216 -31.14)" fill="#ffd347"/>
    <path id="Path_2422" data-name="Path 2422" d="M36.038,126.437a.491.491,0,0,1-.246-.066l-2.285-1.319A.493.493,0,0,1,34,124.2l2.285,1.319a.493.493,0,0,1-.247.921Z" transform="translate(-31.14 -116.215)" fill="#ffd347"/>
    <path id="Path_2423" data-name="Path 2423" d="M3.132,249.25H.493a.493.493,0,1,1,0-.987H3.132a.493.493,0,1,1,0,.987Z" transform="translate(0 -232.432)" fill="#ffd347"/>
    <path id="Path_2424" data-name="Path 2424" d="M33.754,354.013a.493.493,0,0,1-.247-.921l2.285-1.319a.493.493,0,1,1,.493.854L34,353.947A.491.491,0,0,1,33.754,354.013Z" transform="translate(-31.139 -329.28)" fill="#ffd347"/>
    <path id="Path_2425" data-name="Path 2425" d="M124.624,430.7a.493.493,0,0,1-.427-.74l1.319-2.285a.493.493,0,1,1,.855.493l-1.319,2.285A.493.493,0,0,1,124.624,430.7Z" transform="translate(-116.216 -400.176)" fill="#ffd347"/>
    <path id="Path_2426" data-name="Path 2426" d="M248.756,458.775a.493.493,0,0,1-.493-.493v-2.638a.493.493,0,1,1,.987,0v2.638A.493.493,0,0,1,248.756,458.775Z" transform="translate(-232.432 -426.127)" fill="#ffd347"/>
    <path id="Path_2427" data-name="Path 2427" d="M353.519,430.7a.493.493,0,0,1-.428-.247l-1.319-2.285a.493.493,0,0,1,.854-.493l1.319,2.285a.493.493,0,0,1-.427.74Z" transform="translate(-329.28 -400.178)" fill="#ffd347"/>
    <path id="Path_2428" data-name="Path 2428" d="M430.21,354.012a.49.49,0,0,1-.246-.066l-2.285-1.319a.493.493,0,0,1,.493-.854l2.285,1.319a.493.493,0,0,1-.247.921Z" transform="translate(-400.177 -329.279)" fill="#ffd347"/>
    <path id="Path_2429" data-name="Path 2429" d="M458.282,249.25h-2.638a.493.493,0,1,1,0-.987h2.638a.493.493,0,0,1,0,.987Z" transform="translate(-426.127 -232.432)" fill="#ffd347"/>
    <path id="Path_2430" data-name="Path 2430" d="M427.926,126.438a.493.493,0,0,1-.247-.921l2.285-1.319a.493.493,0,1,1,.493.855l-2.285,1.319A.492.492,0,0,1,427.926,126.438Z" transform="translate(-400.177 -116.217)" fill="#ffd347"/>
    <path id="Path_2431" data-name="Path 2431" d="M352.2,36.531a.493.493,0,0,1-.427-.74l1.319-2.285a.493.493,0,0,1,.855.493l-1.319,2.285A.493.493,0,0,1,352.2,36.531Z" transform="translate(-329.28 -31.139)" fill="#ffd347"/>
  </g>
  <path id="Path_2432" data-name="Path 2432" d="M241.473,111.18a9.35,9.35,0,0,0-.989.053,9.235,9.235,0,0,1,0,18.363,9.235,9.235,0,1,0,.989-18.416Z" transform="translate(-225.149 -104.091)" fill="#ffbe31"/>
</svg>
