<svg id="user_2_" data-name="user (2)" xmlns="http://www.w3.org/2000/svg" width="82.667" height="83.667" viewBox="0 0 82.667 83.667">
  <path id="Path_417" data-name="Path 417" d="M41.333,0A41.329,41.329,0,1,0,82.667,41.333,41.329,41.329,0,0,0,41.333,0Z" fill="#dbdbdb"/>
  <path id="Path_418" data-name="Path 418" d="M137.153,105.22a60.5,60.5,0,0,0-10.138-6.135,10.466,10.466,0,0,1-5.972-10.968,1.121,1.121,0,0,1,.033-.212s9.52-6.444,8.2-12.725a6.265,6.265,0,0,0,.732-.016c4.2-.391,4.459-6.639.309-7.307-.033,0-.081-.016-.114-.016l-.13-.683c1.269-4.443,4.361-17.9-5-16.6,0,0-6.721-11.114-20.927-5.761C89.929,50.136,93.639,62.878,93.639,62.878L95.4,67.955c-3.824.944-3.466,6.851.6,7.225a6.558,6.558,0,0,0,.749.016c-1.334,6.281,8.185,12.725,8.185,12.725.016.081.016.146.033.212A10.509,10.509,0,0,1,98.993,99.1a60.915,60.915,0,0,0-10.138,6.135,13.073,13.073,0,0,0-3.255,3.369,41.384,41.384,0,0,0,54.791-.033A12.937,12.937,0,0,0,137.153,105.22Z" transform="translate(-71.67 -36.288)" fill="#1298ad" stroke="#fff" stroke-width="2"/>
</svg>
